<?xml version="1.0" standalone="no"?>
<!DOCTYPE svg PUBLIC "-//W3C//DTD SVG 1.1//EN" "http://www.w3.org/Graphics/SVG/1.1/DTD/svg11.dtd" >
<svg xmlns="http://www.w3.org/2000/svg">
<metadata></metadata>
<defs>
<font id="trivialregular" horiz-adv-x="1638" >
<font-face units-per-em="2048" ascent="2048" descent="0" />
<missing-glyph horiz-adv-x="819" />
<glyph horiz-adv-x="0" />
<glyph horiz-adv-x="682" />
<glyph unicode=" "  horiz-adv-x="819" />
<glyph unicode="&#x09;" horiz-adv-x="819" />
<glyph unicode="&#xa0;" horiz-adv-x="819" />
<glyph unicode="!" horiz-adv-x="546" d="M162 0v246h222v-246h-222zM162 519v846h222v-846h-222z" />
<glyph unicode="&#x22;" horiz-adv-x="1092" d="M246 819v546h222v-546h-222zM625 819v546h222v-546h-222z" />
<glyph unicode="#" d="M137 299v222h298v324h-298v222h298v298h222v-298h324v298h222v-298h299v-222h-299v-324h299v-222h-299v-299h-222v299h-324v-299h-222v299h-298zM657 521h324v324h-324v-324z" />
<glyph unicode="$" d="M137 341v69h221v-69q0 -49 35.5 -84t84.5 -35h188v350h-188q-141 0 -241 100t-100 241v111q0 141 100 241t241 100h683q141 0 241 -100t100 -241v-68h-222v68q0 49 -35 84t-84 35h-188v-349h188q141 0 241 -100.5t100 -241.5v-111q0 -141 -100 -241t-241 -100h-683 q-141 0 -241 100t-100 241zM358 913q0 -49 35.5 -84t84.5 -35h188v349h-188q-49 0 -84.5 -35t-35.5 -84v-111zM778 222h82v350h-82v-350zM778 794h82v349h-82v-349zM973 222h188q49 0 84 35t35 84v111q0 49 -35 84.5t-84 35.5h-188v-350z" />
<glyph unicode="%" d="M137 0l1087 1365h278l-1087 -1365h-278zM137 1024v137q0 85 59.5 144.5t144.5 59.5h137q85 0 145 -59.5t60 -144.5v-137q0 -85 -60 -145t-145 -60h-137q-85 0 -144.5 60t-59.5 145zM276 1024q0 -27 19 -46t46 -19h137q27 0 46 19t19 46v137q0 27 -19 45.5t-46 18.5h-137 q-27 0 -46 -18.5t-19 -45.5v-137zM956 205v136q0 85 60 145t145 60h136q85 0 145 -60t60 -145v-136q0 -85 -60 -145t-145 -60h-136q-85 0 -145 60t-60 145zM1096 205q0 -27 19 -46t46 -19h136q27 0 46 19t19 46v136q0 27 -19 46t-46 19h-136q-27 0 -46 -19t-19 -46v-136z " />
<glyph unicode="&#x26;" d="M137 341v683q0 141 100 241t241 100h136q141 0 241.5 -100t100.5 -241v-111q0 -79 -53 -119h254v148h222v-148h137v-222h-137v-231q0 -141 -100 -241t-241 -100h-560q-141 0 -241 100t-100 241zM358 341q0 -49 35.5 -84t84.5 -35h560q49 0 84 35t35 84v231h-799v-231z M358 794h256q49 0 84.5 35t35.5 84v111q0 49 -35.5 84t-84.5 35h-136q-49 0 -84.5 -35t-35.5 -84v-230z" />
<glyph unicode="'" horiz-adv-x="546" d="M162 819v546h222v-546h-222z" />
<glyph unicode="(" horiz-adv-x="682" d="M137 341v683q0 141 100 241t241 100h68v-222h-68q-49 0 -84.5 -35t-35.5 -84v-683q0 -49 35.5 -84t84.5 -35h68v-222h-68q-141 0 -241 100t-100 241z" />
<glyph unicode=")" horiz-adv-x="682" d="M137 0v222h68q49 0 84 35t35 84v683q0 49 -35 84t-84 35h-68v222h68q141 0 241 -100t100 -241v-683q0 -141 -100 -241t-241 -100h-68z" />
<glyph unicode="*" d="M137 416l460 267l-460 266l110 191l461 -264v489h222v-489l461 264l111 -191l-461 -266l461 -267l-111 -191l-461 265v-490h-222v490l-461 -265z" />
<glyph unicode="+" d="M137 572v222h571v571h222v-571h572v-222h-572v-572h-222v572h-571z" />
<glyph unicode="," horiz-adv-x="546" d="M140 0v119h56q28 0 48.5 27t20.5 59v82h-103v245h222v-327q0 -83 -54.5 -144t-133.5 -61h-56z" />
<glyph unicode="-" horiz-adv-x="1092" d="M137 572v222h819v-222h-819z" />
<glyph unicode="." horiz-adv-x="546" d="M162 0v246h222v-246h-222z" />
<glyph unicode="/" d="M137 0l1087 1365h278l-1087 -1365h-278z" />
<glyph unicode="0" d="M137 341v683q0 141 100 241t241 100h683q141 0 241 -100t100 -241v-683q0 -141 -100 -241t-241 -100h-683q-141 0 -241 100t-100 241zM358 341q0 -49 35.5 -84t84.5 -35h683q49 0 84 35t35 84v683q0 49 -35 84t-84 35h-683q-49 0 -84.5 -35t-35.5 -84v-683zM708 560v246 h222v-246h-222z" />
<glyph unicode="1" horiz-adv-x="750" d="M137 1143v222h452v-1365h-222v1143h-230z" />
<glyph unicode="2" d="M137 0v452q0 141 100 241.5t241 100.5h683q49 0 84 35t35 84v111q0 49 -35 84t-84 35h-683q-49 0 -84.5 -35t-35.5 -84v-68h-221v68q0 141 100 241t241 100h683q141 0 241 -100t100 -241v-111q0 -141 -100 -241t-241 -100h-683q-49 0 -84.5 -35.5t-35.5 -84.5v-230h1144 v-222h-1365z" />
<glyph unicode="3" d="M137 341v69h221v-69q0 -49 35.5 -84t84.5 -35h683q49 0 84 35t35 84v111q0 51 -35 85.5t-84 34.5h-581v222h581q49 0 84 35t35 84v111q0 49 -35 84t-84 35h-683q-49 0 -84.5 -35t-35.5 -84v-68h-221v68q0 141 100 241t241 100h683q141 0 241 -100t100 -241v-111 q0 -69 -30.5 -129t-78.5 -101q48 -40 78.5 -101t30.5 -130v-111q0 -141 -100 -241t-241 -100h-683q-141 0 -241 100t-100 241z" />
<glyph unicode="4" d="M137 913v452h221v-452q0 -49 35.5 -84t84.5 -35h802v571h222v-1365h-222v572h-802q-141 0 -241 100t-100 241z" />
<glyph unicode="5" d="M137 341v69h221v-69q0 -49 35.5 -84t84.5 -35h683q49 0 84 35t35 84v111q0 49 -35 84.5t-84 35.5h-1024v793h1365v-222h-1144v-349h803q141 0 241 -100.5t100 -241.5v-111q0 -141 -100 -241t-241 -100h-683q-141 0 -241 100t-100 241z" />
<glyph unicode="6" d="M137 341v683q0 141 100 241t241 100h683q141 0 241 -100t100 -241v-68h-222v68q0 49 -35 84t-84 35h-683q-49 0 -84.5 -35t-35.5 -84v-230h803q141 0 241 -100.5t100 -241.5v-111q0 -141 -100 -241t-241 -100h-683q-141 0 -241 100t-100 241zM358 341q0 -49 35.5 -84 t84.5 -35h683q49 0 84 35t35 84v111q0 49 -35 84.5t-84 35.5h-803v-231z" />
<glyph unicode="7" d="M137 1143v222h1024q141 0 241 -100t100 -241v-1024h-222v1024q0 49 -35 84t-84 35h-1024z" />
<glyph unicode="8" d="M137 341v111q0 69 30.5 130t78.5 101q-48 41 -78.5 101t-30.5 129v111q0 141 100 241t241 100h683q141 0 241 -100t100 -241v-111q0 -69 -30.5 -129t-78.5 -101q48 -40 78.5 -101t30.5 -130v-111q0 -141 -100 -241t-241 -100h-683q-141 0 -241 100t-100 241zM358 341 q0 -49 35.5 -84t84.5 -35h683q49 0 84 35t35 84v111q0 51 -35 85.5t-84 34.5h-683q-49 0 -84.5 -35t-35.5 -85v-111zM358 913q0 -49 35.5 -84t84.5 -35h683q49 0 84 35t35 84v111q0 49 -35 84t-84 35h-683q-49 0 -84.5 -35t-35.5 -84v-111z" />
<glyph unicode="9" d="M137 341v69h221v-69q0 -49 35.5 -84t84.5 -35h683q49 0 84 35t35 84v231h-802q-141 0 -241 100t-100 241v111q0 141 100 241t241 100h683q141 0 241 -100t100 -241v-683q0 -141 -100 -241t-241 -100h-683q-141 0 -241 100t-100 241zM358 913q0 -49 35.5 -84t84.5 -35h802 v230q0 49 -35 84t-84 35h-683q-49 0 -84.5 -35t-35.5 -84v-111z" />
<glyph unicode=":" horiz-adv-x="546" d="M162 287v245h222v-245h-222zM162 833v246h222v-246h-222z" />
<glyph unicode=";" horiz-adv-x="546" d="M140 0v119h56q28 0 48.5 27t20.5 59v82h-103v245h222v-327q0 -83 -54.5 -144t-133.5 -61h-56zM162 833v246h222v-246h-222z" />
<glyph unicode="&#x3c;" d="M137 683l995 682h370l-995 -682l995 -683h-370z" />
<glyph unicode="=" d="M137 299v222h1365v-222h-1365zM137 845v222h1365v-222h-1365z" />
<glyph unicode="&#x3e;" d="M137 0l995 683l-995 682h370l995 -682l-995 -683h-370z" />
<glyph unicode="?" d="M137 956v68q0 141 100 241t241 100h683q141 0 241 -100t100 -241v-111q0 -141 -100 -241t-241 -100h-137q-38 0 -66 -28t-28 -66v-96h-222v96q0 130 93 223t223 93h137q49 0 84 35t35 84v111q0 49 -35 84t-84 35h-683q-49 0 -84.5 -35t-35.5 -84v-68h-221zM708 0v246h222 v-246h-222z" />
<glyph unicode="@" d="M137 341v683q0 141 100 241t241 100h683q141 0 241 -100t100 -241v-512q0 -98 -70.5 -168.5t-168.5 -70.5h-649q-85 0 -144.5 60t-59.5 145v70q0 85 59.5 145t144.5 60h475v134q0 25 -19.5 45t-45.5 20h-410q-25 0 -44.5 -19.5t-19.5 -45.5v-40h-140v40q0 85 59.5 145 t144.5 60h410q85 0 145 -60t60 -145v-488h34q52 0 89 37t37 90v498q0 95 -67 162t-161 67h-683q-94 0 -161.5 -67.5t-67.5 -161.5v-683q0 -94 67 -161t162 -67h785v-113h-785q-141 0 -241 100t-100 241zM550 478q0 -26 19.5 -45.5t44.5 -19.5h475v200h-475 q-25 0 -44.5 -19.5t-19.5 -45.5v-70z" />
<glyph unicode="A" d="M137 0v1024q0 141 100 241t241 100h683q141 0 241 -100t100 -241v-1024h-222v572h-922v-572h-221zM358 794h922v230q0 49 -35 84t-84 35h-683q-49 0 -84.5 -35t-35.5 -84v-230z" />
<glyph unicode="B" d="M137 0v1365h1024q141 0 241 -100t100 -241v-111q0 -69 -30.5 -129t-78.5 -101q48 -40 78.5 -101t30.5 -130v-111q0 -141 -100 -241t-241 -100h-1024zM358 222h803q49 0 84 35t35 84v111q0 51 -35 85.5t-84 34.5h-803v-350zM358 794h803q49 0 84 35t35 84v111q0 49 -35 84 t-84 35h-803v-349z" />
<glyph unicode="C" d="M137 341v683q0 141 100 241t241 100h1024v-222h-1024q-49 0 -84.5 -35t-35.5 -84v-683q0 -49 35.5 -84t84.5 -35h1024v-222h-1024q-141 0 -241 100t-100 241z" />
<glyph unicode="D" d="M137 0v1365h1024q141 0 241 -100t100 -241v-683q0 -141 -100 -241t-241 -100h-1024zM358 222h803q49 0 84 35t35 84v683q0 49 -35 84t-84 35h-803v-921z" />
<glyph unicode="E" d="M137 0v1365h1365v-222h-1144v-349h871v-222h-871v-350h1144v-222h-1365z" />
<glyph unicode="F" d="M137 0v1365h1365v-222h-1144v-349h871v-222h-871v-572h-221z" />
<glyph unicode="G" d="M137 341v683q0 141 100 241t241 100h1024v-222h-1024q-49 0 -84.5 -35t-35.5 -84v-683q0 -49 35.5 -84t84.5 -35h802v350h-597v222h819v-794h-1024q-141 0 -241 100t-100 241z" />
<glyph unicode="H" d="M137 0v1365h221v-571h922v571h222v-1365h-222v572h-922v-572h-221z" />
<glyph unicode="I" horiz-adv-x="546" d="M162 0v1365h222v-1365h-222z" />
<glyph unicode="J" d="M137 0v222h1024q49 0 84 35t35 84v1024h222v-1024q0 -141 -100 -241t-241 -100h-1024z" />
<glyph unicode="K" d="M137 0v1365h221v-641l794 641h350l-667 -541l667 -824h-285l-555 686l-304 -246v-440h-221z" />
<glyph unicode="L" d="M137 0v1365h221v-1143h1144v-222h-1365z" />
<glyph unicode="M" d="M137 0v1365h221l461 -706l461 706h222v-1365h-222v923l-355 -522h-212l-355 522v-923h-221z" />
<glyph unicode="N" d="M137 0v1365h221l922 -1025v1025h222v-1365h-222l-922 1026v-1026h-221z" />
<glyph unicode="O" d="M137 341v683q0 141 100 241t241 100h683q141 0 241 -100t100 -241v-683q0 -141 -100 -241t-241 -100h-683q-141 0 -241 100t-100 241zM358 341q0 -49 35.5 -84t84.5 -35h683q49 0 84 35t35 84v683q0 49 -35 84t-84 35h-683q-49 0 -84.5 -35t-35.5 -84v-683z" />
<glyph unicode="P" d="M137 0v1365h1024q141 0 241 -100t100 -241v-111q0 -141 -100 -241t-241 -100h-803v-572h-221zM358 794h803q49 0 84 35t35 84v111q0 49 -35 84t-84 35h-803v-349z" />
<glyph unicode="Q" d="M137 341v683q0 141 100 241t241 100h683q141 0 241 -100t100 -241v-683q0 -141 -100 -241t-241 -100h-683q-141 0 -241 100t-100 241zM358 341q0 -49 35.5 -84t84.5 -35h409q70 0 157 19l-182 261l182 126l219 -309q17 52 17 132v573q0 49 -35 84t-84 35h-683 q-49 0 -84.5 -35t-35.5 -84v-683z" />
<glyph unicode="R" d="M137 0v1365h1024q141 0 241 -100t100 -241v-111q0 -141 -100 -241t-241 -100h-62l403 -572h-273l-403 572h-468v-572h-221zM358 794h803q49 0 84 35t35 84v111q0 49 -35 84t-84 35h-803v-349z" />
<glyph unicode="S" d="M133 913v111q0 141 100 241t241 100h963v-222h-963q-49 0 -84 -35t-35 -84v-111q0 -49 35 -84t84 -35h690q141 0 241 -100.5t100 -241.5v-111q0 -141 -100 -241t-241 -100h-963v222h963q49 0 84 35t35 84v111q0 49 -35 84.5t-84 35.5h-690q-141 0 -241 100t-100 241z" />
<glyph unicode="T" d="M137 1143v222h1365v-222h-572v-1143h-222v1143h-571z" />
<glyph unicode="U" d="M137 341v1024h221v-1024q0 -49 35.5 -84t84.5 -35h683q49 0 84 35t35 84v1024h222v-1024q0 -141 -100 -241t-241 -100h-683q-141 0 -241 100t-100 241z" />
<glyph unicode="V" d="M137 864v501h221v-501q0 -43 23 -69l438 -583l439 583q22 25 22 69v501h222v-501q0 -114 -62 -197l-498 -667h-246l-498 667q-61 82 -61 197z" />
<glyph unicode="W" d="M137 0v1365h221v-923l355 522h212l355 -522v923h222v-1365h-222l-461 707l-461 -707h-221z" />
<glyph unicode="X" d="M137 0v205q0 91 45 168t118 120l320 190l-320 189q-73 43 -118 120.5t-45 168.5v204h221v-204q0 -31 18 -61.5t49 -44.5l394 -239l394 239q31 14 49 44.5t18 61.5v204h222v-204q0 -91 -45.5 -168.5t-118.5 -120.5l-319 -189l319 -190q73 -44 118.5 -120.5t45.5 -167.5 v-205h-222v205q0 31 -18 61.5t-49 44.5l-394 239l-394 -239q-31 -14 -49 -44.5t-18 -61.5v-205h-221z" />
<glyph unicode="Y" d="M137 1161v204h221v-204q0 -32 17 -60.5t45 -42.5l399 -292l400 292q28 14 44.5 42t16.5 61v204h222v-204q0 -86 -41 -158t-101 -116l-430 -317v-570h-222v570l-430 317q-60 44 -100.5 116t-40.5 158z" />
<glyph unicode="Z" d="M137 0v222l1025 921h-1025v222h1365v-222l-1026 -921h1026v-222h-1365z" />
<glyph unicode="[" horiz-adv-x="819" d="M137 0v1365h546v-222h-325v-921h325v-222h-546z" />
<glyph unicode="\" d="M137 1365h278l1087 -1365h-278z" />
<glyph unicode="]" horiz-adv-x="819" d="M137 0v222h324v921h-324v222h546v-1365h-546z" />
<glyph unicode="^" d="M137 546l576 819h212l577 -819h-266l-417 579l-416 -579h-266z" />
<glyph unicode="_" d="M137 0v222h1365v-222h-1365z" />
<glyph unicode="`" horiz-adv-x="682" d="M164 1911h232l125 -409h-233z" />
<glyph unicode="a" d="M137 0v536q0 108 61 196l341 488q50 70 124 107.5t156 37.5q82 -2 156.5 -39t123.5 -106l341 -488q62 -87 62 -196v-536h-222v324h-922v-324h-221zM358 546h922q-3 33 -22 58l-340 487q-37 52 -99 52t-99 -52l-339 -487q-20 -27 -23 -58z" />
<glyph unicode="b" d="M137 0v1365h1024q141 0 241 -100t100 -241v-111q0 -69 -30.5 -129t-78.5 -101q48 -40 78.5 -101t30.5 -130v-111q0 -141 -100 -241t-241 -100h-1024zM358 222h803q49 0 84 35t35 84v111q0 51 -35 85.5t-84 34.5h-803v-350zM358 794h803q49 0 84 35t35 84v111q0 49 -35 84 t-84 35h-803v-349z" />
<glyph unicode="c" d="M137 341v683q0 141 100 241t241 100h683q141 0 241 -100t100 -241v-68h-222v68q0 49 -35 84t-84 35h-683q-49 0 -84.5 -35t-35.5 -84v-683q0 -49 35.5 -84t84.5 -35h683q49 0 84 35t35 84v69h222v-69q0 -141 -100 -241t-241 -100h-683q-141 0 -241 100t-100 241z" />
<glyph unicode="d" d="M137 0v1365h1024q141 0 241 -100t100 -241v-683q0 -141 -100 -241t-241 -100h-1024zM358 222h803q49 0 84 35t35 84v683q0 49 -35 84t-84 35h-803v-921z" />
<glyph unicode="e" d="M137 341v683q0 141 100 241t241 100h1024v-222h-1024q-49 0 -84.5 -35t-35.5 -84v-230h871v-222h-871v-231q0 -49 35.5 -84t84.5 -35h1024v-222h-1024q-141 0 -241 100t-100 241z" />
<glyph unicode="f" d="M137 0v1024q0 141 100 241t241 100h1024v-222h-1024q-49 0 -84.5 -35t-35.5 -84v-230h871v-222h-871v-572h-221z" />
<glyph unicode="g" d="M137 341v683q0 141 100 241t241 100h683q141 0 241 -100t100 -241v-68h-222v68q0 49 -35 84t-84 35h-683q-49 0 -84.5 -35t-35.5 -84v-683q0 -49 35.5 -84t84.5 -35h683q49 0 84 35t35 84v231h-597v222h819v-453q0 -141 -100 -241t-241 -100h-683q-141 0 -241 100 t-100 241z" />
<glyph unicode="h" d="M137 0v1365h221v-571h922v571h222v-1365h-222v572h-922v-572h-221z" />
<glyph unicode="i" horiz-adv-x="1092" d="M137 0v222h298v921h-298v222h819v-222h-299v-921h299v-222h-819z" />
<glyph unicode="j" d="M137 341v69h221v-69q0 -49 35.5 -84t84.5 -35h683q49 0 84 35t35 84v1024h222v-1024q0 -141 -100 -241t-241 -100h-683q-141 0 -241 100t-100 241z" />
<glyph unicode="k" d="M137 0v1365h221v-571h103l694 571h347l-691 -571h350q141 0 241 -100.5t100 -241.5v-452h-222v452q0 49 -35 84.5t-84 35.5h-803v-572h-221z" />
<glyph unicode="l" d="M137 341v1024h221v-1024q0 -49 35.5 -84t84.5 -35h1024v-222h-1024q-141 0 -241 100t-100 241z" />
<glyph unicode="m" d="M137 0v1365h221l461 -706l461 706h222v-1365h-222v923l-355 -522h-212l-355 522v-923h-221z" />
<glyph unicode="n" d="M137 0v1365h290q108 0 193.5 -61t123.5 -157l362 -860q12 -27 41 -46t65 -19h68v1143h222v-1365h-290q-106 0 -191 59t-122 151l-367 869q-13 29 -41 46.5t-64 17.5h-69v-1143h-221z" />
<glyph unicode="o" d="M137 341v683q0 141 100 241t241 100h683q141 0 241 -100t100 -241v-683q0 -141 -100 -241t-241 -100h-683q-141 0 -241 100t-100 241zM358 341q0 -49 35.5 -84t84.5 -35h683q49 0 84 35t35 84v683q0 49 -35 84t-84 35h-683q-49 0 -84.5 -35t-35.5 -84v-683z" />
<glyph unicode="p" d="M137 0v1365h1024q141 0 241 -100t100 -241v-111q0 -141 -100 -241t-241 -100h-803v-572h-221zM358 794h803q49 0 84 35t35 84v111q0 49 -35 84t-84 35h-803v-349z" />
<glyph unicode="q" d="M137 341v683q0 141 100 241t241 100h683q141 0 241 -100t100 -241v-683q0 -141 -100 -241t-241 -100h-683q-141 0 -241 100t-100 241zM358 341q0 -49 35.5 -84t84.5 -35h230v324h222v-324h231q49 0 84 35t35 84v683q0 49 -35 84t-84 35h-683q-49 0 -84.5 -35t-35.5 -84 v-683z" />
<glyph unicode="r" d="M137 0v1365h1024q141 0 241 -100t100 -241v-111q0 -69 -30.5 -129t-78.5 -101q48 -40 78.5 -101t30.5 -130v-452h-222v452q0 49 -35 84.5t-84 35.5h-803v-572h-221zM358 794h803q49 0 84 35t35 84v111q0 49 -35 84t-84 35h-803v-349z" />
<glyph unicode="s" d="M137 341v69h221v-69q0 -49 35.5 -84t84.5 -35h683q49 0 84 35t35 84v111q0 49 -35 84.5t-84 35.5h-683q-141 0 -241 100t-100 241v111q0 141 100 241t241 100h683q141 0 241 -100t100 -241v-68h-222v68q0 49 -35 84t-84 35h-683q-49 0 -84.5 -35t-35.5 -84v-111 q0 -49 35.5 -84t84.5 -35h683q141 0 241 -100.5t100 -241.5v-111q0 -141 -100 -241t-241 -100h-683q-141 0 -241 100t-100 241z" />
<glyph unicode="t" d="M137 1143v222h1365v-222h-572v-1143h-222v1143h-571z" />
<glyph unicode="u" d="M137 341v1024h221v-1024q0 -49 35.5 -84t84.5 -35h683q49 0 84 35t35 84v1024h222v-1024q0 -141 -100 -241t-241 -100h-683q-141 0 -241 100t-100 241z" />
<glyph unicode="v" d="M137 829v536h221v-536q0 -37 23 -68l339 -486q38 -53 99 -53t99 53l340 486q22 29 22 68v536h222v-536q0 -109 -62 -196l-341 -488q-49 -69 -124 -107t-156 -38q-83 0 -156.5 37.5t-123.5 107.5l-341 488q-61 88 -61 196z" />
<glyph unicode="w" d="M137 0v1365h221v-923l355 522h212l355 -522v923h222v-1365h-222l-461 707l-461 -707h-221z" />
<glyph unicode="x" d="M137 0v398q0 97 40.5 170.5t95.5 114.5q-55 41 -95.5 114.5t-40.5 170.5v397h221v-397q0 -72 51 -123t123 -51h574q72 0 123 51t51 123v397h222v-397q0 -97 -41 -170t-96 -115q55 -42 96 -115t41 -170v-398h-222v398q0 72 -51 123t-123 51h-574q-72 0 -123 -51t-51 -123 v-398h-221z" />
<glyph unicode="y" d="M137 913v452h221v-452q0 -49 35.5 -84t84.5 -35h683q49 0 84 35t35 84v452h222v-452q0 -141 -100 -241t-241 -100h-231v-572h-222v572h-230q-141 0 -241 100t-100 241z" />
<glyph unicode="z" d="M137 0v290q0 105 59 190t150 122l869 367q29 13 47 41.5t18 64.5v68h-1143v222h1365v-290q0 -108 -61.5 -193.5t-157.5 -123.5l-860 -362q-27 -12 -46 -41.5t-19 -64.5v-68h1144v-222h-1365z" />
<glyph unicode="{" horiz-adv-x="819" d="M137 572v222h68q29 0 48.5 20t19.5 48v162q0 141 100 241t241 100h69v-222h-69q-49 0 -84 -35t-35 -84v-162q0 -100 -63 -179q63 -79 63 -180v-162q0 -49 35 -84t84 -35h69v-222h-69q-141 0 -241 100t-100 241v162q0 29 -20 49t-48 20h-68z" />
<glyph unicode="|" horiz-adv-x="546" d="M162 0v1365h222v-1365h-222z" />
<glyph unicode="}" horiz-adv-x="819" d="M137 0v222h68q49 0 84 35t35 84v162q0 101 63 180q-63 79 -63 179v162q0 49 -35 84t-84 35h-68v222h68q141 0 241 -100t100 -241v-162q0 -28 20 -48t48 -20h69v-222h-69q-28 0 -48 -20t-20 -49v-162q0 -141 -100 -241t-241 -100h-68z" />
<glyph unicode="~" d="M137 410v239q0 141 100 241t241 100h111q69 0 122.5 -16t87.5 -40t60.5 -62.5t40.5 -74t27 -84.5q10 -51 41 -83.5t82 -32.5h111q49 0 84 35.5t35 84.5v239h222v-239q0 -141 -100 -241.5t-241 -100.5h-111q-69 0 -122.5 16t-87.5 40t-60.5 62.5t-40.5 74t-27 84.5 q-10 51 -41 83.5t-82 32.5h-111q-49 0 -84.5 -35t-35.5 -84v-239h-221z" />
<glyph unicode="&#xa2;" d="M137 341v683q0 141 100 241t241 100h683q141 0 241 -100t100 -241v-68h-222v68q0 49 -35 84t-84 35h-188v-921h188q49 0 84 35t35 84v69h222v-69q0 -141 -100 -241t-241 -100h-683q-141 0 -241 100t-100 241zM358 341q0 -49 35.5 -84t84.5 -35h188v921h-188 q-49 0 -84.5 -35t-35.5 -84v-683zM778 222h82v921h-82v-921z" />
<glyph unicode="&#xa3;" d="M137 0v222h204q29 0 49 20t20 48v282h-273v222h273v230q0 141 100 241t241 100h136q141 0 241.5 -100t100.5 -241v-68h-222v68q0 49 -35.5 84t-84.5 35h-136q-49 0 -84.5 -35t-35.5 -84v-230h325v-222h-325v-282q0 -41 -11 -68h541q49 0 84 35t35 84v69h222v-69 q0 -141 -100 -241t-241 -100h-1024z" />
<glyph unicode="&#xa5;" d="M137 1161v204h221v-204q0 -32 17 -60.5t45 -42.5l399 -292l400 292q28 14 44.5 42t16.5 61v204h222v-204q0 -86 -41 -158t-101 -116l-430 -317v-172h231v-113h-231v-285h-222v285h-230v113h230v172l-430 317q-60 44 -100.5 116t-40.5 158z" />
<glyph unicode="&#xa8;" horiz-adv-x="955" d="M162 1514v249h222v-249h-222zM572 1514v249h222v-249h-222z" />
<glyph unicode="&#xa9;" d="M137 341v683q0 141 100 241t241 100h683q141 0 241 -100t100 -241v-683q0 -141 -100 -241t-241 -100h-683q-141 0 -241 100t-100 241zM249 341q0 -94 67 -161t162 -67h683q95 0 161.5 66.5t66.5 161.5v683q0 95 -67 162t-161 67h-683q-94 0 -161.5 -67.5t-67.5 -161.5 v-683zM416 522v321q0 100 71 171t172 71h321q100 0 171 -71t71 -171v-58h-195v58q0 20 -14 34t-33 14h-321q-20 0 -34 -14t-14 -34v-321q0 -20 14 -34t34 -14h321q20 0 33.5 14t13.5 34v58h195v-58q0 -101 -71 -171.5t-171 -70.5h-321q-101 0 -172 70.5t-71 171.5z" />
<glyph unicode="&#xab;" d="M137 683l494 409h308l-495 -409l495 -410h-308zM700 683l495 409h307l-495 -409l495 -410h-307z" />
<glyph unicode="&#xad;" horiz-adv-x="1092" d="M137 572v222h819v-222h-819z" />
<glyph unicode="&#xae;" horiz-adv-x="1092" d="M137 751v410q0 85 59.5 144.5t144.5 59.5h410q85 0 145 -59.5t60 -144.5v-410q0 -85 -60 -145t-145 -60h-410q-85 0 -144.5 60t-59.5 145zM205 751q0 -56 40 -96.5t96 -40.5h410q56 0 96 40.5t40 96.5v410q0 56 -40 96t-96 40h-410q-56 0 -96 -40t-40 -96v-410zM300 710 v491h345q60 0 103.5 -43t43.5 -103v-24q0 -60 -53 -108q53 -48 53 -107v-106h-118v125q0 13 -10.5 21.5t-18.5 8.5h-227v-155h-118zM418 983h227q8 0 18.5 9t10.5 22v41q0 11 -9 20t-20 9h-227v-101z" />
<glyph unicode="&#xb4;" horiz-adv-x="682" d="M162 1502l125 409h232l-125 -409h-232z" />
<glyph unicode="&#xbb;" d="M137 273l494 410l-494 409h307l495 -409l-495 -410h-307zM700 273l495 410l-495 409h307l495 -409l-495 -410h-307z" />
<glyph unicode="&#x2c6;" horiz-adv-x="1092" d="M159 1502l280 409h215l280 -409h-236l-152 220l-152 -220h-235z" />
<glyph unicode="&#x2da;" horiz-adv-x="819" d="M150 1673v34q0 79 56 135t135 56h137q80 0 135.5 -56t55.5 -135v-34q0 -80 -56 -136t-135 -56h-137q-79 0 -135 56t-56 136zM263 1673q0 -32 23 -55.5t55 -23.5h137q32 0 55 23.5t23 55.5v34q0 32 -23 55t-55 23h-137q-32 0 -55 -23t-23 -55v-34z" />
<glyph unicode="&#x2dc;" horiz-adv-x="1092" d="M133 1509v164q0 98 69.5 168t166.5 70h42q52 0 90.5 -13t63.5 -40t38.5 -50.5t29.5 -61.5q19 -50 48 -50h43q19 0 30 13t11 32v164h194v-164q0 -98 -69 -168.5t-166 -70.5h-43q-51 0 -90 13.5t-64.5 39.5t-40.5 52t-29 62q-18 48 -46 48h-42q-19 0 -30 -12.5t-11 -31.5 v-164h-195z" />
<glyph unicode="&#x2000;" horiz-adv-x="955" />
<glyph unicode="&#x2001;" horiz-adv-x="1911" />
<glyph unicode="&#x2002;" horiz-adv-x="955" />
<glyph unicode="&#x2003;" horiz-adv-x="1911" />
<glyph unicode="&#x2004;" horiz-adv-x="637" />
<glyph unicode="&#x2005;" horiz-adv-x="477" />
<glyph unicode="&#x2006;" horiz-adv-x="318" />
<glyph unicode="&#x2007;" horiz-adv-x="318" />
<glyph unicode="&#x2008;" horiz-adv-x="238" />
<glyph unicode="&#x2009;" horiz-adv-x="382" />
<glyph unicode="&#x200a;" horiz-adv-x="106" />
<glyph unicode="&#x2010;" horiz-adv-x="1092" d="M137 572v222h819v-222h-819z" />
<glyph unicode="&#x2011;" horiz-adv-x="1092" d="M137 572v222h819v-222h-819z" />
<glyph unicode="&#x2012;" horiz-adv-x="1092" d="M137 572v222h819v-222h-819z" />
<glyph unicode="&#x2013;" d="M137 572v222h1365v-222h-1365z" />
<glyph unicode="&#x2014;" d="M137 572v222h1365v-222h-1365z" />
<glyph unicode="&#x2018;" horiz-adv-x="546" d="M162 867v294q0 83 54 143.5t134 60.5h56v-112h-56q-32 0 -53.5 -28.5t-21.5 -63.5v-48h109v-246h-222z" />
<glyph unicode="&#x2019;" horiz-adv-x="546" d="M140 867v113h56q32 0 53.5 28.5t21.5 63.5v48h-109v245h222v-293q0 -83 -54.5 -144t-133.5 -61h-56z" />
<glyph unicode="&#x201a;" horiz-adv-x="546" d="M140 0v113h56q32 0 53.5 28.5t21.5 63.5v54h-109v246h222v-300q0 -83 -54.5 -144t-133.5 -61h-56z" />
<glyph unicode="&#x201c;" horiz-adv-x="955" d="M162 860v301q0 83 54 143.5t134 60.5h56v-112h-56q-32 0 -53.5 -28.5t-21.5 -63.5v-55h109v-246h-222zM572 860v301q0 83 54 143.5t133 60.5h57v-112h-57q-32 0 -53.5 -28.5t-21.5 -63.5v-55h110v-246h-222z" />
<glyph unicode="&#x201d;" horiz-adv-x="955" d="M140 860v113h56q32 0 53.5 28.5t21.5 63.5v55h-109v245h222v-300q0 -83 -54.5 -144t-133.5 -61h-56zM550 860v113h56q32 0 53.5 28.5t21.5 63.5v55h-109v245h222v-300q0 -83 -54.5 -144t-133.5 -61h-56z" />
<glyph unicode="&#x201e;" horiz-adv-x="955" d="M140 0v113h56q32 0 53.5 28.5t21.5 63.5v54h-109v246h222v-300q0 -83 -54.5 -144t-133.5 -61h-56zM550 0v113h56q32 0 53.5 28.5t21.5 63.5v54h-109v246h222v-300q0 -83 -54.5 -144t-133.5 -61h-56z" />
<glyph unicode="&#x2026;" d="M162 0v247h222v-247h-222zM708 0v247h222v-247h-222zM1254 0v247h222v-247h-222z" />
<glyph unicode="&#x202f;" horiz-adv-x="382" />
<glyph unicode="&#x2039;" horiz-adv-x="1092" d="M137 683l498 409h321l-499 -409l499 -410h-321z" />
<glyph unicode="&#x203a;" horiz-adv-x="1092" d="M137 273l498 410l-498 409h320l499 -409l-499 -410h-320z" />
<glyph unicode="&#x205f;" horiz-adv-x="477" />
<glyph unicode="&#x20ac;" d="M137 341v683q0 141 100 241t241 100h1024v-222h-1024q-49 0 -84.5 -35t-35.5 -84v-188h678l-34 -112h-644v-82h620l-34 -113h-586v-188q0 -49 35.5 -84t84.5 -35h1024v-222h-1024q-141 0 -241 100t-100 241z" />
<glyph unicode="&#x2122;" d="M137 1253v112h614v-112h-251v-570h-113v570h-250zM819 683v682h115l227 -365l227 365h114v-682h-113v460l-174 -274h-109l-174 274v-460h-113z" />
<glyph unicode="&#x25fc;" horiz-adv-x="1365" d="M0 0v1365h1365v-1365h-1365z" />
</font>
</defs>
</svg>
